<?xml version="1.0" standalone="no"?>
<!DOCTYPE svg PUBLIC "-//W3C//DTD SVG 20010904//EN"
 "http://www.w3.org/TR/2001/REC-SVG-20010904/DTD/svg10.dtd">
<svg version="1.0" xmlns="http://www.w3.org/2000/svg"
 width="500.000000pt" height="500.000000pt" viewBox="0 0 500.000000 500.000000"
 preserveAspectRatio="xMidYMid meet">

<g transform="translate(0.000000,500.000000) scale(0.100000,-0.100000)"
fill="#000000" stroke="none">
<path d="M1190 2965 l0 -1255 324 0 324 0 4 55 3 55 -265 2 -265 3 -3 1138 -2
1137 1190 0 1190 0 -2 -1137 -3 -1138 -262 -3 -263 -2 0 -55 0 -55 325 0 325
0 0 1255 0 1255 -1310 0 -1310 0 0 -1255z"/>
<path d="M1565 3858 c-3 -7 -4 -413 -3 -903 l3 -890 105 -3 c99 -3 106 -2 124
20 10 13 68 80 129 150 l111 128 467 0 467 0 49 -57 c26 -32 58 -69 71 -83 12
-14 48 -55 80 -92 l57 -68 108 0 107 0 -2 903 -3 902 -151 3 -150 3 -45 -48
c-25 -27 -52 -58 -61 -71 -8 -12 -31 -39 -49 -60 -19 -20 -106 -118 -194 -217
-88 -99 -162 -182 -165 -185 -3 -3 -27 -31 -53 -62 -27 -32 -52 -58 -57 -58
-5 0 -24 17 -43 38 -19 20 -63 69 -98 107 -35 39 -107 118 -160 175 -52 58
-146 161 -209 230 -62 69 -120 131 -128 138 -11 8 -59 12 -159 12 -106 0 -145
-3 -148 -12z m249 -190 c37 -44 100 -114 170 -188 39 -41 87 -93 105 -115 18
-22 61 -69 95 -104 102 -107 196 -215 196 -227 0 -6 -7 -18 -17 -25 -9 -8 -38
-43 -65 -79 -27 -36 -73 -90 -101 -120 -29 -31 -81 -89 -116 -130 -35 -41
-103 -118 -151 -170 -48 -52 -100 -111 -116 -130 -16 -19 -41 -48 -56 -65
l-28 -30 0 696 c0 383 3 699 7 702 14 15 59 6 77 -15z m1456 -348 l0 -370
-287 0 -287 0 -33 32 c-32 31 -41 53 -25 60 4 2 25 26 47 53 41 52 99 118 195
220 31 33 76 85 100 115 25 30 47 57 50 60 3 3 18 21 34 40 15 19 55 63 88 98
47 48 66 62 89 62 l29 0 0 -370z m-667 -544 c34 -38 81 -91 105 -117 82 -91
102 -114 102 -121 0 -5 -137 -8 -305 -8 -168 0 -305 4 -305 8 0 5 28 40 63 78
34 38 82 94 107 124 25 30 65 77 90 103 l45 48 18 -23 c10 -13 46 -54 80 -92z
m667 -236 c0 -139 -4 -240 -9 -240 -5 0 -11 4 -13 9 -1 5 -33 42 -69 82 -36
41 -108 121 -159 179 -51 58 -112 126 -136 153 -24 26 -44 50 -44 52 0 3 97 5
215 5 l215 0 0 -240z"/>
<path d="M2010 1580 l0 -230 45 0 44 0 3 148 3 147 24 -45 c13 -25 37 -70 54
-100 16 -30 41 -75 54 -100 14 -25 26 -46 28 -48 3 -3 40 60 105 183 23 44 47
84 51 90 5 5 9 -52 9 -133 l0 -142 45 0 45 0 0 230 0 230 -58 0 -57 0 -68
-136 c-38 -75 -70 -135 -71 -133 -2 2 -34 64 -71 137 l-68 132 -58 0 -59 0 0
-230z"/>
<path d="M2610 1806 c0 -5 76 -129 133 -218 36 -55 37 -60 37 -148 l0 -90 45
0 45 0 0 91 0 90 64 98 c35 54 75 116 90 139 l26 42 -58 0 -59 0 -49 -80 c-27
-44 -53 -79 -59 -80 -10 0 -77 106 -91 143 -5 13 -18 17 -65 17 -32 0 -59 -2
-59 -4z"/>
<path d="M2558 1236 c-62 -22 -88 -60 -88 -128 0 -31 6 -51 22 -67 21 -24 117
-71 143 -71 8 0 25 -5 39 -12 48 -21 46 -77 -4 -98 -40 -17 -85 -4 -114 32
-23 30 -24 30 -64 17 l-40 -14 13 -32 c20 -48 85 -86 156 -91 50 -4 65 0 104
22 53 31 75 69 75 127 0 69 -33 103 -136 135 -90 29 -113 49 -95 83 21 38 86
37 128 -2 20 -17 26 -18 53 -7 39 16 38 31 -4 73 -47 47 -115 59 -188 33z"/>
<path d="M966 1193 c-30 -81 -78 -206 -91 -238 -30 -69 -65 -159 -65 -167 0
-4 24 -8 54 -8 l53 0 17 45 18 45 88 0 89 0 20 -45 c20 -45 20 -45 71 -45 44
0 51 2 46 18 -3 9 -44 111 -90 227 l-84 210 -54 3 -55 3 -17 -48z m107 -170
l26 -63 -55 0 c-40 0 -54 4 -52 13 16 59 43 126 48 120 4 -5 19 -36 33 -70z"/>
<path d="M1360 1010 l0 -230 51 0 50 0 -2 83 -2 82 28 0 c26 0 34 -9 75 -80
l46 -80 52 -3 c29 -2 52 0 52 3 0 3 -20 41 -45 85 -25 44 -45 83 -45 88 0 5
11 15 25 22 57 31 71 136 25 199 -33 48 -77 61 -201 61 l-109 0 0 -230z m209
135 c45 -23 54 -62 21 -95 -15 -15 -33 -20 -77 -20 l-58 0 2 58 c0 31 2 60 2
65 2 13 81 8 110 -8z"/>
<path d="M1790 1200 l0 -40 65 0 65 0 0 -190 0 -190 50 0 50 0 0 190 0 190 70
0 70 0 0 40 0 40 -185 0 -185 0 0 -40z"/>
<path d="M2260 1010 l0 -230 45 0 45 0 0 230 0 230 -45 0 -45 0 0 -230z"/>
<path d="M2870 1200 l0 -40 70 0 70 0 0 -190 0 -190 45 0 45 0 2 188 3 187 68
3 67 3 0 39 0 40 -185 0 -185 0 0 -40z"/>
<path d="M3340 1011 l0 -231 50 0 50 0 0 86 0 85 27 -3 c23 -2 35 -17 73 -85
l45 -83 52 0 c53 0 59 8 33 45 -4 6 -22 37 -39 70 l-33 59 26 19 c78 56 73
181 -8 241 -24 18 -45 21 -152 24 l-124 4 0 -231z m227 126 c20 -19 21 -70 3
-91 -9 -11 -30 -16 -71 -16 l-59 0 0 66 0 66 56 -4 c32 -3 62 -11 71 -21z"/>
<path d="M3773 1188 c19 -29 57 -89 85 -133 l51 -80 3 -95 3 -95 48 -3 47 -3
0 94 c0 104 -2 99 119 286 22 35 41 68 41 73 0 4 -24 8 -54 8 l-55 0 -47 -80
c-26 -44 -51 -80 -55 -80 -4 0 -28 36 -54 80 l-47 80 -59 0 -59 0 33 -52z"/>
</g>
</svg>
